<?xml version="1.0" encoding="UTF-8"?>
<svg xmlns="http://www.w3.org/2000/svg" xmlns:xlink="http://www.w3.org/1999/xlink" width="32px" height="29px" viewBox="0 0 32 29" version="1.1">
<g id="surface1">
<path style=" stroke:none;fill-rule:evenodd;fill:rgb(81.568627%,30.980392%,30.980392%);fill-opacity:1;" d="M 24.3125 15.636719 L 24.3125 21.683594 L 7.632812 21.683594 L 7.632812 15.636719 C 4.921875 15.636719 2.835938 13.550781 2.835938 10.839844 C 2.835938 8.132812 4.921875 6.046875 7.632812 6.046875 C 9.507812 6.046875 11.175781 7.089844 12.011719 8.757812 L 14.097656 7.714844 C 13.46875 6.671875 12.84375 5.628906 11.800781 5.003906 C 12.636719 3.542969 14.097656 2.5 15.972656 2.5 C 18.683594 2.5 20.769531 4.585938 20.769531 7.296875 C 20.769531 8.132812 20.558594 8.964844 20.144531 9.800781 L 22.226562 11.050781 C 22.851562 10.007812 23.269531 8.757812 23.269531 7.296875 C 23.269531 6.878906 23.269531 6.671875 23.269531 6.253906 C 23.6875 6.046875 24.105469 6.046875 24.519531 6.046875 C 27.230469 6.046875 29.316406 8.132812 29.316406 10.839844 C 29.316406 13.550781 27.023438 15.636719 24.3125 15.636719 Z M 24.3125 26.476562 L 7.632812 26.476562 L 7.632812 24.183594 L 24.3125 24.183594 Z M 24.3125 3.753906 C 23.6875 3.753906 23.0625 3.960938 22.226562 3.960938 C 20.976562 1.667969 18.683594 0 15.972656 0 C 13.261719 0 10.761719 1.460938 9.71875 3.960938 C 9.09375 3.753906 8.464844 3.753906 7.632812 3.753906 C 3.671875 3.753906 0.542969 6.878906 0.542969 10.839844 C 0.542969 13.96875 2.628906 16.679688 5.339844 17.511719 L 5.339844 28.5625 L 26.816406 28.5625 L 26.816406 17.722656 C 29.527344 16.679688 31.609375 14.175781 31.609375 11.050781 C 31.609375 7.089844 28.273438 3.753906 24.3125 3.753906 Z M 13.679688 19.179688 L 11.386719 19.179688 L 11.386719 14.59375 L 13.679688 14.59375 Z M 20.769531 19.179688 L 18.472656 19.179688 L 18.472656 14.59375 L 20.769531 14.59375 Z M 20.769531 19.179688 "/>
</g>
</svg>
